<mxfile host="app.diagrams.net" agent="Mozilla/5.0 (Windows NT 10.0; Win64; x64) AppleWebKit/537.36 (KHTML, like Gecko) Chrome/129.0.0.0 Safari/537.36" version="24.7.17">
  <diagram name="Page-1" id="voHIHJbenmCPzFNbBPa8">
    <mxGraphModel dx="1195" dy="622" grid="1" gridSize="10" guides="1" tooltips="1" connect="1" arrows="1" fold="1" page="1" pageScale="1" pageWidth="850" pageHeight="1100" math="0" shadow="0">
      <root>
        <mxCell id="0" />
        <mxCell id="1" parent="0" />
        <mxCell id="Hg_4MY-VJVgbTvJdZDNt-4" style="edgeStyle=orthogonalEdgeStyle;rounded=0;orthogonalLoop=1;jettySize=auto;html=1;" edge="1" parent="1" source="Hg_4MY-VJVgbTvJdZDNt-1" target="Hg_4MY-VJVgbTvJdZDNt-2">
          <mxGeometry relative="1" as="geometry" />
        </mxCell>
        <mxCell id="Hg_4MY-VJVgbTvJdZDNt-5" style="edgeStyle=orthogonalEdgeStyle;rounded=0;orthogonalLoop=1;jettySize=auto;html=1;" edge="1" parent="1" source="Hg_4MY-VJVgbTvJdZDNt-1" target="Hg_4MY-VJVgbTvJdZDNt-3">
          <mxGeometry relative="1" as="geometry" />
        </mxCell>
        <mxCell id="Hg_4MY-VJVgbTvJdZDNt-1" value="Raw data" style="rounded=1;whiteSpace=wrap;html=1;shape=parallelogram;perimeter=parallelogramPerimeter;fixedSize=1;" vertex="1" parent="1">
          <mxGeometry x="340" y="120" width="120" height="60" as="geometry" />
        </mxCell>
        <mxCell id="Hg_4MY-VJVgbTvJdZDNt-14" value="" style="edgeStyle=orthogonalEdgeStyle;rounded=0;orthogonalLoop=1;jettySize=auto;html=1;" edge="1" parent="1" source="Hg_4MY-VJVgbTvJdZDNt-2" target="Hg_4MY-VJVgbTvJdZDNt-13">
          <mxGeometry relative="1" as="geometry" />
        </mxCell>
        <mxCell id="Hg_4MY-VJVgbTvJdZDNt-2" value="Time&lt;div&gt;Invariant&lt;br&gt;Data&lt;/div&gt;" style="shape=parallelogram;perimeter=parallelogramPerimeter;whiteSpace=wrap;html=1;fixedSize=1;" vertex="1" parent="1">
          <mxGeometry x="180" y="210" width="120" height="60" as="geometry" />
        </mxCell>
        <mxCell id="Hg_4MY-VJVgbTvJdZDNt-9" style="edgeStyle=orthogonalEdgeStyle;rounded=0;orthogonalLoop=1;jettySize=auto;html=1;" edge="1" parent="1" source="Hg_4MY-VJVgbTvJdZDNt-3" target="Hg_4MY-VJVgbTvJdZDNt-6">
          <mxGeometry relative="1" as="geometry">
            <Array as="points">
              <mxPoint x="480" y="240" />
            </Array>
          </mxGeometry>
        </mxCell>
        <mxCell id="Hg_4MY-VJVgbTvJdZDNt-10" style="edgeStyle=orthogonalEdgeStyle;rounded=0;orthogonalLoop=1;jettySize=auto;html=1;" edge="1" parent="1" source="Hg_4MY-VJVgbTvJdZDNt-3" target="Hg_4MY-VJVgbTvJdZDNt-7">
          <mxGeometry relative="1" as="geometry">
            <Array as="points">
              <mxPoint x="640" y="240" />
            </Array>
          </mxGeometry>
        </mxCell>
        <mxCell id="Hg_4MY-VJVgbTvJdZDNt-3" value="Time&lt;div&gt;Variant&lt;/div&gt;&lt;div&gt;Data&lt;/div&gt;" style="shape=parallelogram;perimeter=parallelogramPerimeter;whiteSpace=wrap;html=1;fixedSize=1;" vertex="1" parent="1">
          <mxGeometry x="500" y="210" width="120" height="60" as="geometry" />
        </mxCell>
        <mxCell id="Hg_4MY-VJVgbTvJdZDNt-16" style="edgeStyle=orthogonalEdgeStyle;rounded=0;orthogonalLoop=1;jettySize=auto;html=1;" edge="1" parent="1" source="Hg_4MY-VJVgbTvJdZDNt-6" target="Hg_4MY-VJVgbTvJdZDNt-11">
          <mxGeometry relative="1" as="geometry">
            <Array as="points">
              <mxPoint x="480" y="420" />
              <mxPoint x="480" y="420" />
            </Array>
          </mxGeometry>
        </mxCell>
        <mxCell id="Hg_4MY-VJVgbTvJdZDNt-6" value="First&lt;div&gt;24h&lt;/div&gt;" style="shape=parallelogram;perimeter=parallelogramPerimeter;whiteSpace=wrap;html=1;fixedSize=1;" vertex="1" parent="1">
          <mxGeometry x="420" y="320" width="120" height="60" as="geometry" />
        </mxCell>
        <mxCell id="Hg_4MY-VJVgbTvJdZDNt-15" style="edgeStyle=orthogonalEdgeStyle;rounded=0;orthogonalLoop=1;jettySize=auto;html=1;" edge="1" parent="1" source="Hg_4MY-VJVgbTvJdZDNt-7" target="Hg_4MY-VJVgbTvJdZDNt-11">
          <mxGeometry relative="1" as="geometry">
            <Array as="points">
              <mxPoint x="640" y="430" />
              <mxPoint x="640" y="430" />
            </Array>
          </mxGeometry>
        </mxCell>
        <mxCell id="Hg_4MY-VJVgbTvJdZDNt-7" value="Second&lt;div&gt;24h&lt;/div&gt;" style="shape=parallelogram;perimeter=parallelogramPerimeter;whiteSpace=wrap;html=1;fixedSize=1;" vertex="1" parent="1">
          <mxGeometry x="580" y="320" width="120" height="60" as="geometry" />
        </mxCell>
        <mxCell id="Hg_4MY-VJVgbTvJdZDNt-18" style="edgeStyle=orthogonalEdgeStyle;rounded=0;orthogonalLoop=1;jettySize=auto;html=1;" edge="1" parent="1" source="Hg_4MY-VJVgbTvJdZDNt-11" target="Hg_4MY-VJVgbTvJdZDNt-12">
          <mxGeometry relative="1" as="geometry">
            <Array as="points">
              <mxPoint x="240" y="520" />
              <mxPoint x="240" y="520" />
            </Array>
          </mxGeometry>
        </mxCell>
        <mxCell id="Hg_4MY-VJVgbTvJdZDNt-19" style="edgeStyle=orthogonalEdgeStyle;rounded=0;orthogonalLoop=1;jettySize=auto;html=1;" edge="1" parent="1" source="Hg_4MY-VJVgbTvJdZDNt-11" target="Hg_4MY-VJVgbTvJdZDNt-12">
          <mxGeometry relative="1" as="geometry">
            <Array as="points">
              <mxPoint x="640" y="530" />
              <mxPoint x="640" y="530" />
            </Array>
          </mxGeometry>
        </mxCell>
        <mxCell id="Hg_4MY-VJVgbTvJdZDNt-20" style="edgeStyle=orthogonalEdgeStyle;rounded=0;orthogonalLoop=1;jettySize=auto;html=1;" edge="1" parent="1" source="Hg_4MY-VJVgbTvJdZDNt-11" target="Hg_4MY-VJVgbTvJdZDNt-12">
          <mxGeometry relative="1" as="geometry">
            <Array as="points">
              <mxPoint x="480" y="530" />
              <mxPoint x="480" y="530" />
            </Array>
          </mxGeometry>
        </mxCell>
        <mxCell id="Hg_4MY-VJVgbTvJdZDNt-11" value="Impute missing values with median" style="rounded=0;whiteSpace=wrap;html=1;" vertex="1" parent="1">
          <mxGeometry x="90" y="440" width="620" height="60" as="geometry" />
        </mxCell>
        <mxCell id="Hg_4MY-VJVgbTvJdZDNt-22" style="edgeStyle=orthogonalEdgeStyle;rounded=0;orthogonalLoop=1;jettySize=auto;html=1;" edge="1" parent="1" source="Hg_4MY-VJVgbTvJdZDNt-12" target="Hg_4MY-VJVgbTvJdZDNt-21">
          <mxGeometry relative="1" as="geometry">
            <Array as="points">
              <mxPoint x="480" y="640" />
              <mxPoint x="480" y="640" />
            </Array>
          </mxGeometry>
        </mxCell>
        <mxCell id="Hg_4MY-VJVgbTvJdZDNt-23" style="edgeStyle=orthogonalEdgeStyle;rounded=0;orthogonalLoop=1;jettySize=auto;html=1;" edge="1" parent="1" source="Hg_4MY-VJVgbTvJdZDNt-12" target="Hg_4MY-VJVgbTvJdZDNt-21">
          <mxGeometry relative="1" as="geometry">
            <Array as="points">
              <mxPoint x="640" y="640" />
              <mxPoint x="640" y="640" />
            </Array>
          </mxGeometry>
        </mxCell>
        <mxCell id="Hg_4MY-VJVgbTvJdZDNt-12" value="Normalize" style="rounded=0;whiteSpace=wrap;html=1;" vertex="1" parent="1">
          <mxGeometry x="90" y="560" width="620" height="60" as="geometry" />
        </mxCell>
        <mxCell id="Hg_4MY-VJVgbTvJdZDNt-17" style="edgeStyle=orthogonalEdgeStyle;rounded=0;orthogonalLoop=1;jettySize=auto;html=1;" edge="1" parent="1" source="Hg_4MY-VJVgbTvJdZDNt-13" target="Hg_4MY-VJVgbTvJdZDNt-11">
          <mxGeometry relative="1" as="geometry">
            <Array as="points">
              <mxPoint x="240" y="420" />
              <mxPoint x="240" y="420" />
            </Array>
          </mxGeometry>
        </mxCell>
        <mxCell id="Hg_4MY-VJVgbTvJdZDNt-13" value="One-hot&lt;div&gt;Encoding for&lt;/div&gt;&lt;div&gt;Categorical Data&lt;/div&gt;" style="rounded=0;whiteSpace=wrap;html=1;" vertex="1" parent="1">
          <mxGeometry x="180" y="320" width="120" height="60" as="geometry" />
        </mxCell>
        <mxCell id="Hg_4MY-VJVgbTvJdZDNt-25" style="edgeStyle=orthogonalEdgeStyle;rounded=0;orthogonalLoop=1;jettySize=auto;html=1;" edge="1" parent="1" source="Hg_4MY-VJVgbTvJdZDNt-21" target="Hg_4MY-VJVgbTvJdZDNt-24">
          <mxGeometry relative="1" as="geometry">
            <Array as="points">
              <mxPoint x="480" y="770" />
              <mxPoint x="480" y="770" />
            </Array>
          </mxGeometry>
        </mxCell>
        <mxCell id="Hg_4MY-VJVgbTvJdZDNt-21" value="Calculate S.D. for each variable" style="rounded=0;whiteSpace=wrap;html=1;" vertex="1" parent="1">
          <mxGeometry x="410" y="680" width="300" height="60" as="geometry" />
        </mxCell>
        <mxCell id="Hg_4MY-VJVgbTvJdZDNt-24" value="Normalize S.D. of each variable" style="rounded=0;whiteSpace=wrap;html=1;" vertex="1" parent="1">
          <mxGeometry x="410" y="800" width="300" height="60" as="geometry" />
        </mxCell>
        <mxCell id="Hg_4MY-VJVgbTvJdZDNt-26" style="edgeStyle=orthogonalEdgeStyle;rounded=0;orthogonalLoop=1;jettySize=auto;html=1;" edge="1" parent="1" source="Hg_4MY-VJVgbTvJdZDNt-21" target="Hg_4MY-VJVgbTvJdZDNt-24">
          <mxGeometry relative="1" as="geometry">
            <mxPoint x="480" y="740" as="sourcePoint" />
            <mxPoint x="480" y="800" as="targetPoint" />
            <Array as="points">
              <mxPoint x="640" y="770" />
              <mxPoint x="640" y="770" />
            </Array>
          </mxGeometry>
        </mxCell>
      </root>
    </mxGraphModel>
  </diagram>
</mxfile>
